<svg width="30" height="30" viewBox="0 0 30 30" fill="none" xmlns="http://www.w3.org/2000/svg">
<g clip-path="url(#clip0_11_1836)">
<mask id="mask0_11_1836" style="mask-type:luminance" maskUnits="userSpaceOnUse" x="0" y="0" width="30" height="30">
<path d="M30 0H0V30H30V0Z" fill="white"/>
</mask>
<g mask="url(#mask0_11_1836)">
<path d="M22.465 3.81766L7.0075 10.0002H2.8125C1.2625 10.0002 0 11.2626 0 12.8126V16.2501C0 17.7226 1.15625 18.7501 2.8125 18.7501H3.875L5.01 26.6951C5.07625 27.1576 5.47125 27.5001 5.9375 27.5001H9.6875C9.955 27.5001 10.2088 27.3864 10.3875 27.1876C10.565 26.9889 10.65 26.7239 10.62 26.4576L9.8825 19.9001L22.4638 24.9326C22.5775 24.9776 22.695 25.0001 22.8125 25.0001C22.9963 25.0001 23.1812 24.9451 23.3387 24.8389C23.5962 24.6639 23.75 24.3739 23.75 24.0626V4.68766C23.75 4.37641 23.5962 4.08641 23.3387 3.91141C23.08 3.73641 22.7525 3.70141 22.465 3.81766Z" fill="#00C5F6"/>
<path d="M26.5237 11.67L29.6487 9.17002C30.0525 8.84627 30.1187 8.25627 29.795 7.85127C29.47 7.44877 28.8812 7.38377 28.4762 7.70502L25.3512 10.205C24.9475 10.5288 24.8812 11.1188 25.205 11.5238C25.39 11.7538 25.6625 11.875 25.9375 11.875C26.1437 11.875 26.35 11.8075 26.5237 11.67Z" fill="#00C5F6"/>
<path d="M26.5237 18.33C26.1212 18.0088 25.5312 18.0738 25.205 18.4763C24.8812 18.88 24.9475 19.4713 25.3512 19.795L28.4762 22.295C28.65 22.4325 28.8562 22.5 29.0625 22.5C29.3375 22.5 29.61 22.3788 29.795 22.1488C30.1187 21.745 30.0525 21.1538 29.6487 20.83L26.5237 18.33Z" fill="#00C5F6"/>
<path d="M29.0625 14.0625H25.9375C25.42 14.0625 25 14.4825 25 15C25 15.5175 25.42 15.9375 25.9375 15.9375H29.0625C29.58 15.9375 30 15.5175 30 15C30 14.4825 29.58 14.0625 29.0625 14.0625Z" fill="#00C5F6"/>
</g>
</g>
<defs>
<clipPath id="clip0_11_1836">
<rect width="30" height="30" fill="white"/>
</clipPath>
</defs>
</svg>
